<svg width="720" height="847" viewBox="0 0 720 847" fill="none" xmlns="http://www.w3.org/2000/svg">
<mask id="mask0" mask-type="alpha" maskUnits="userSpaceOnUse" x="0" y="0" width="720" height="847">
<rect width="720" height="847" fill="white"/>
</mask>
<g mask="url(#mask0)">
<mask id="path-2-inside-1" fill="white">
<path fill-rule="evenodd" clip-rule="evenodd" d="M1728.35 -460.87C1718.65 -458.791 1686.83 -433.095 1663.76 -408.721C1633.9 -377.164 1616.11 -353.902 1580.99 -300.479C1559.16 -267.265 1527.24 -219.502 1513.86 -200.05C1506.47 -189.302 1496.69 -174.614 1492.14 -167.408C1487.58 -160.202 1474.05 -139.656 1462.07 -121.749C1450.1 -103.843 1430.63 -74.6689 1418.81 -56.9212C1406.99 -39.1716 1393.51 -19.1863 1388.85 -12.5094C1380.24 -0.161059 1367.14 19.4009 1340.19 60.1086C1300.98 119.363 1248.11 197.573 1234.79 216.022C1216.34 241.59 1193.72 268.664 1183.74 277.129C1178.68 281.425 1166.98 292.182 1157.75 301.034C1148.52 309.886 1135.49 321.807 1128.79 327.524C1122.09 333.241 1100.8 351.951 1081.48 369.101C1062.16 386.252 1039.03 406.662 1030.09 414.458C1021.14 422.254 1004.41 436.845 992.911 446.882C981.413 456.919 959.162 476.325 943.466 490.002C927.77 503.68 905.544 523.106 894.071 533.172C843.08 577.916 828.934 586.853 824.022 577.432C821.092 571.814 823.805 567.021 859.034 515.566C874.535 492.925 885.519 476.733 891.085 468.319C894.522 463.122 900.002 455.043 903.263 450.365C909.349 441.631 915.685 432.293 933.392 405.954C962.751 362.285 1018.52 282.648 1029.62 268.551C1033.95 263.048 1043.89 249.685 1051.7 238.856C1059.51 228.027 1068.8 215.38 1072.35 210.753C1075.89 206.127 1081.69 198.316 1085.24 193.399C1091.85 184.22 1112.83 157.164 1140.47 122.172C1149.08 111.275 1158.19 99.5652 1160.73 96.1521C1163.26 92.739 1169.47 84.845 1174.53 78.6103C1179.6 72.3756 1186.34 63.9601 1189.51 59.912C1192.68 55.862 1199.72 46.8927 1205.16 39.9815C1210.59 33.0684 1222.5 17.8493 1231.61 6.15863C1240.72 -5.53207 1251.91 -19.5133 1256.47 -24.9107C1261.02 -30.3082 1270.55 -42.1936 1277.64 -51.3235C1284.73 -60.4534 1295.12 -73.5577 1300.73 -80.4463C1306.34 -87.3348 1317.07 -101.05 1324.57 -110.924C1332.08 -120.799 1341.16 -132.351 1344.75 -136.598C1348.35 -140.844 1355.02 -149.298 1359.57 -155.385C1364.13 -161.472 1373.24 -173.462 1379.83 -182.026C1415.43 -228.355 1418.49 -232.493 1466.43 -298.966C1507.57 -356.009 1515.33 -366.84 1518.06 -371.022C1519.5 -373.235 1525.46 -381.545 1531.3 -389.49C1540.25 -401.644 1541.63 -404.526 1540 -407.657C1538.14 -411.223 1519.37 -426.531 1516.86 -426.531C1516.19 -426.531 1511.81 -429.37 1507.11 -432.84C1480.72 -452.36 1464.88 -456.015 1449.29 -446.188C1445.01 -443.487 1425.86 -424.991 1406.75 -405.083C1365.48 -362.108 1353.37 -347.412 1326.31 -307.47C1320.33 -298.635 1307.57 -279.925 1297.97 -265.893C1288.36 -251.861 1273.47 -229.749 1264.86 -216.756C1241.04 -180.775 1220.24 -149.5 1208.3 -131.713C1202.37 -122.878 1189.73 -103.743 1180.21 -89.1907C1170.69 -74.6387 1158.85 -56.7795 1153.9 -49.5035C1148.94 -42.2276 1132.56 -17.5648 1117.5 5.30252C1064.02 86.4873 1042.07 118.791 1035.31 126.254C1031.55 130.411 1025.05 138.237 1020.86 143.646C1016.68 149.053 1008.95 156.981 1003.68 161.264C998.409 165.544 990.37 172.635 985.814 177.019C981.257 181.404 972.971 188.769 967.402 193.387C961.832 198.004 952.201 206.475 946 212.21C939.797 217.944 924.535 231.566 912.084 242.48C899.634 253.394 883.912 267.427 877.149 273.663C864.957 284.904 846.668 301.083 817.327 326.579C719.012 412.012 617.471 495.212 523.678 585.479C517.095 591.816 508.81 599.226 505.266 601.949C501.722 604.671 496.233 609.309 493.068 612.257C480.876 623.619 473.975 628.013 468.323 628.013C465.682 628.013 459.236 620.784 459.236 617.823C459.236 615.407 487.648 577.561 508.504 552.195C513.304 546.355 521.376 535.878 526.439 528.908C592.518 437.972 663.085 346.984 739.512 264.603C794.267 205.581 829.66 163.089 833.176 152.152C835.713 144.26 834.332 138.536 828.431 132.479C821.731 125.6 789.916 106.248 782.851 104.753C775.102 103.112 764.96 104.698 760.173 108.3C755.559 111.77 720.187 153.504 715.736 160.729C681.5 201.5 387.797 557.203 217.79 702.662C214.144 705.781 197.069 722.152 179.845 739.042C153.361 765.011 147.657 769.752 142.902 769.752C136.259 769.752 133.792 764.686 137.183 758.013C139.847 752.768 158.342 724.292 174.973 699.828C181.686 689.953 199.301 663.75 214.119 641.601C228.934 619.45 251.18 586.282 263.554 567.896C275.927 549.508 287.112 532.66 288.41 530.454C290.697 526.569 311.261 496.006 323.223 478.713C326.458 474.036 335.852 460.004 344.096 447.531C352.341 435.058 363.458 418.474 368.799 410.678C374.141 402.883 391.275 377.369 406.873 353.982C422.474 330.595 440.342 303.806 446.582 294.452C452.82 285.097 465.526 266.387 474.816 252.875C484.105 239.362 496.509 220.652 502.381 211.298C508.25 201.943 515.7 190.887 518.937 186.729C522.172 182.572 529.533 171.478 535.296 162.076C548.97 139.763 550.5 132.5 537.5 121C509.511 98.1633 495.055 84.5238 473.285 67.5773C465.116 61.2186 461.213 58.5 453.5 58.5C443.823 58.5 439.5 62 419.616 81.7607C413.522 87.5229 400.689 99.465 391.1 108.3C381.509 117.135 368.238 129.542 361.606 135.869C354.972 142.197 347.247 148.923 344.433 150.813C339.44 154.173 339.232 154.161 335.469 150.297C331.733 146.462 331.705 146.033 334.559 136.298C336.178 130.774 338.759 122.852 340.293 118.694C341.826 114.537 343.117 108.861 343.161 106.083C343.445 88.344 285.66 47.2861 267.288 56.2344C254.685 62.3727 212.975 98.9169 185.821 127.613C138.654 177.456 100.696 218.861 90.673 231.4C85.387 238.015 77.2913 247.778 72.6829 253.098C68.0744 258.418 62.8141 265.008 60.995 267.744C55.4788 276.039 43.1301 273.174 43.1301 263.602C43.1301 258.643 57.6054 233.67 88.5483 185.244C95.0476 175.071 104.937 159.011 110.523 149.556C116.109 140.099 124.98 125.885 130.236 117.969C143.533 97.9418 143.428 98.5805 134.554 91.4841C111.5 75.5 93.9903 57.525 87.5 59C83.7379 59.855 81.6975 62.9827 79.7823 66.2506C77.4974 70.1494 70.118 81.842 63.3848 92.2363C56.6498 102.631 39.7036 129.845 25.7254 152.712C11.7472 175.579 -1.18896 196.415 -3.02094 199.014C-4.85475 201.612 -10.3414 210.394 -15.2132 218.53C-20.0868 226.664 -28.9686 241.122 -34.9506 250.658C-40.9326 260.192 -54.6899 282.451 -65.5215 300.121C-76.3532 317.792 -90.2835 340.328 -96.4791 350.203C-102.675 360.077 -111.485 374.535 -116.055 382.33C-120.626 390.126 -133.877 411.812 -145.502 430.522C-157.128 449.232 -172.575 474.745 -179.829 487.218C-187.084 499.691 -196.525 515.424 -200.809 522.18C-205.092 528.937 -216.89 548.922 -227.024 566.592C-255.095 615.534 -262.789 628.721 -278.936 655.565C-287.115 669.161 -293.806 681.59 -293.806 683.187C-293.806 687.063 -287.314 695.345 -281.917 698.35C-279.525 699.682 -270.266 705.817 -261.34 711.983C-247.546 721.512 -243.836 723.213 -236.604 723.322C-231.583 723.398 -226.726 722.288 -224.756 720.616C-220.133 716.693 -196.573 689.148 -177.811 665.732C-169.204 654.99 -157.17 640.62 -151.068 633.799C-144.967 626.979 -137.983 618.422 -135.551 614.784C-133.119 611.146 -127.339 603.804 -122.709 598.47C-118.08 593.135 -107.248 579.986 -98.6407 569.249C-90.0332 558.513 -78.4337 544.505 -72.8642 538.121C-63.1538 526.99 -50.1735 510.796 -39.1375 496.043C-36.2836 492.228 -29.0975 483.58 -23.1689 476.824C-17.2404 470.067 -10.5145 461.988 -8.22406 458.87C32.2201 403.852 80.5294 353.771 122.737 299.904C150.625 264.314 170.171 250.159 170.171 265.55C170.171 268.912 149.442 305.095 138.997 319.965C137.17 322.563 125.075 341.273 112.119 361.542C71.8646 424.515 35.2781 491.845 -9.20728 551.908C-11.1571 554.54 -19.2104 567 -27.1017 579.596C-34.9948 592.194 -43.8969 605.901 -46.887 610.059C-58.3557 626.009 -93.1171 683.605 -93.1171 686.657C-93.1171 690.824 -85.5886 698.484 -72.5181 707.614C-66.7588 711.637 -61.5096 715.818 -60.856 716.904C-58.8344 720.263 -45.5098 728.175 -41.8772 728.175C-35.8988 728.175 -24.3012 717.915 -4.54907 695.154C68.9121 610.499 134.556 520.039 205.677 433.625C211.972 425.977 218.94 417.138 221.165 413.982C223.389 410.828 229.395 403.478 234.509 397.651C239.626 391.823 251.531 377.184 260.965 365.119C270.401 353.056 280.771 340.3 284.01 336.771C287.248 333.245 292.995 326.379 296.778 321.516C300.562 316.654 305.61 311.57 307.996 310.223C311.85 308.045 312.717 308.25 315.706 312.039C320.469 318.075 318.476 322.575 294.62 359.652C283.586 376.802 268.338 400.615 260.733 412.568C253.131 424.522 240.121 444.932 231.827 457.925C182.805 534.703 133.281 611.211 85.4772 688.758C50.5439 745.437 -24.9935 830.174 -24.9935 894.971C-24.9935 900.202 -19.7241 905.501 -1.97882 918.113C5.10972 923.149 13.9658 930.049 17.6997 933.445C21.4336 936.841 27.898 940.666 32.0646 941.947C41.3349 944.799 45.6819 942.9 75.4703 922.996C94.8046 910.075 108.601 898.42 148.365 861.411C197.13 816.023 247.401 772.978 295.348 726.441C305.818 716.273 310.397 713.057 314.396 713.057C319.474 713.057 333.743 721.899 360.733 741.775C373.94 751.5 384.035 756.523 390.369 756.523C398.829 756.523 443.202 732.269 466.185 715.081C563.684 642.164 655.978 561.282 750.15 484.13C759.774 476.245 772.152 465.849 777.657 461.026C789.015 451.074 795.178 449.838 798.306 456.884C800.589 462.028 798.849 465.394 776.763 498.557C770.532 507.912 751.967 536.402 735.507 561.867C719.049 587.333 704.073 610.384 702.228 613.092C684.934 638.481 653.877 690.34 653.127 695.084C650.656 710.722 695.07 735.427 707.958 739.566C717.371 742.593 718.432 742.586 727.354 739.435C732.546 737.6 740.005 734.034 743.929 731.509C747.852 728.984 756.449 723.663 763.031 719.686C780.795 708.95 805.516 692.329 811.992 686.765C815.123 684.075 822.459 678.472 828.293 674.314C837.906 667.464 852.44 655.803 872.581 638.777C876.632 635.353 882.846 630.492 886.39 627.975C889.934 625.459 900.197 616.997 909.195 609.171C928.722 592.187 947.079 576.939 964.673 563.09C971.778 557.496 978.642 551.622 979.924 550.037C981.205 548.451 984.83 546.059 987.981 544.721C993.234 542.487 993.998 542.649 997.168 546.669C999.411 549.511 1000.2 552.46 999.414 555.043C998.068 559.467 981.851 583.552 946.055 634.291C921.33 669.34 906.136 692.164 893.626 713.057C865.231 760.475 860.899 768.583 858.772 778.259C856.789 787.285 859.396 790.237 885.451 808.47L907.02 823.564H921.194C934.677 823.564 935.973 823.173 947.808 815.557C954.652 811.154 960.746 807.55 961.35 807.55C961.956 807.55 965.016 805.55 968.149 803.105C971.283 800.661 976.746 797.137 980.29 795.273C998.913 785.482 1036.39 757.695 1075.72 724.511C1080.11 720.809 1089.81 712.679 1097.28 706.442C1104.76 700.205 1118.95 688.299 1128.82 679.984C1138.69 671.668 1148.56 663.589 1150.74 662.03C1152.93 660.471 1159.67 654.745 1165.72 649.306C1171.77 643.867 1179.13 637.521 1182.07 635.204C1185.01 632.889 1193.35 625.856 1200.59 619.58C1207.83 613.304 1218.87 603.917 1225.11 598.72C1231.36 593.523 1242.95 583.743 1250.87 576.986C1258.8 570.23 1270.55 560.267 1276.98 554.847C1283.42 549.426 1297.8 537.203 1308.94 527.685C1339.28 501.764 1359.72 486.273 1363.59 486.273C1372.05 486.273 1368.44 498.614 1354.05 518.865C1350.5 523.853 1344.29 533.448 1340.24 540.187C1336.19 546.924 1328.96 558.175 1324.17 565.184C1309.35 586.902 1308.13 588.749 1295.82 608.169C1263.89 658.545 1239.9 702.454 1239.9 710.501C1239.9 716.997 1254.84 731.608 1274.78 744.619C1287.93 753.194 1289.36 753.683 1301.06 753.583C1312.01 753.49 1315.29 752.496 1329.6 744.95C1345.7 736.459 1364.57 724.144 1379.27 712.541C1415.69 683.783 1439.97 664.321 1451.63 654.527C1459.23 648.147 1473.31 636.867 1482.93 629.457C1492.55 622.046 1503.3 613.162 1506.81 609.715C1510.33 606.266 1513.82 603.444 1514.58 603.444C1515.33 603.444 1520.06 599.831 1525.09 595.412C1530.11 590.994 1537.81 584.614 1542.18 581.233C1546.56 577.852 1553.97 571.899 1558.65 568.004C1563.33 564.109 1569.51 559.222 1572.39 557.143C1583.18 549.355 1605.04 530.566 1606.97 527.43C1611.28 520.408 1606.5 519.512 1564.39 519.459C1524.39 519.41 1524.35 519.415 1513.96 524.62C1504.44 529.392 1484.84 544.551 1449.91 574.151C1409 608.83 1393.27 620.661 1387.56 621.056C1378.4 621.687 1380.47 615.046 1397.49 589.097C1406.29 575.68 1414.94 563.001 1416.69 560.922C1418.45 558.844 1426.37 547.363 1434.28 535.409C1442.2 523.456 1452.48 508.573 1457.13 502.337C1461.78 496.1 1467.88 487.596 1470.69 483.438C1477.55 473.295 1489.4 456.969 1499.5 443.74C1504.06 437.771 1511.1 428.435 1515.15 422.993C1525.68 408.843 1542.91 387.157 1548.53 380.989C1551.17 378.089 1556.31 371.889 1559.95 367.211C1563.59 362.534 1575.74 348.927 1586.95 336.974C1598.17 325.02 1613.23 308.011 1620.42 299.176C1627.61 290.341 1636.58 280.136 1640.35 276.498C1644.12 272.86 1651.58 264.356 1656.92 257.599C1662.26 250.843 1670.3 241.413 1674.81 236.643C1679.31 231.873 1687.71 222.093 1693.49 214.909C1699.26 207.726 1713.45 190.793 1725.04 177.28C1753.3 144.306 1753.3 144.364 1726.51 125.04C1719.63 120.076 1708.41 113.081 1701.58 109.5C1691.27 104.097 1687.82 103.167 1681.32 104.037C1671.55 105.346 1670.17 106.448 1637.59 139.177C1622.91 153.925 1607.17 168.957 1602.61 172.582C1598.05 176.205 1589.35 183.891 1583.28 189.661C1577.2 195.43 1567.67 203.895 1562.1 208.471C1556.53 213.046 1547.79 220.656 1542.68 225.383C1537.57 230.109 1526.04 240.354 1517.05 248.15C1508.06 255.946 1494.18 268.277 1486.2 275.553C1478.23 282.829 1469.05 290.744 1465.81 293.14C1462.57 295.537 1453.7 303.304 1446.11 310.402C1438.51 317.499 1428.4 326.594 1423.64 330.612C1418.88 334.63 1400.11 351.1 1381.93 367.211C1363.76 383.323 1342.4 402.032 1334.48 408.788C1326.55 415.545 1313.26 427.451 1304.94 435.247C1288.76 450.399 1271.7 465.384 1250.45 483.085C1243.2 489.128 1233.47 497.633 1228.83 501.983C1219.19 511.036 1217.34 512.667 1187.74 538.291C1157.17 564.763 1135.52 583.737 1105.1 610.698C1090.63 623.52 1072.27 639.679 1064.29 646.605C1056.31 653.53 1042.79 665.362 1034.25 672.897C1018.78 686.538 1014.32 688.647 1010.12 684.331C1005.13 679.209 1006.91 675.913 1043.29 622.982C1061.32 596.749 1066.65 588.927 1098.87 541.4C1109.92 525.113 1126.57 500.73 1135.87 487.218C1160.86 450.917 1177.47 426.648 1184.14 416.686C1193.94 402.064 1209.99 378.97 1236.21 341.746C1249.88 322.34 1266.87 298.148 1273.96 287.986C1286.42 270.12 1303.87 245.81 1315.44 230.196C1318.52 226.039 1326.97 214.558 1334.22 204.683C1355.07 176.284 1358.43 171.845 1373.7 152.561C1381.63 142.558 1389.74 132.12 1391.74 129.368C1393.73 126.617 1400.22 118.411 1406.16 111.135C1412.09 103.859 1422.06 91.6448 1428.31 83.9908C1434.55 76.3388 1445.46 63.0946 1452.55 54.5618C1459.64 46.0291 1470.41 32.8568 1476.49 25.2917C1482.56 17.7265 1492.51 5.56522 1498.58 -1.73532C1504.66 -9.03586 1511.86 -17.9693 1514.59 -21.5883C1517.32 -25.2055 1525.19 -34.5585 1532.08 -42.3712C1538.97 -50.182 1545.44 -58.0703 1546.45 -59.8978C1547.47 -61.7253 1551.02 -66.5124 1554.35 -70.5359C1564.09 -82.3079 1578.2 -100.32 1601.13 -130.291C1611.1 -143.316 1671.97 -225.89 1683.62 -242.192C1687.16 -247.151 1693.79 -256.491 1698.35 -262.949C1702.91 -269.406 1715.81 -287.379 1727.02 -302.891C1738.23 -318.403 1751.07 -336.294 1755.56 -342.652C1760.04 -349.009 1769.1 -361.666 1775.68 -370.779C1782.26 -379.893 1790.75 -391.677 1794.55 -396.968C1801.81 -407.087 1803.89 -418.66 1799.15 -422.653C1797.89 -423.721 1789.4 -430.226 1780.28 -437.107C1771.17 -443.988 1761.07 -452.198 1757.83 -455.35C1751.56 -461.469 1740.66 -463.508 1728.35 -460.87ZM958.943 -166.195C949.261 -159.529 930.499 -144.284 919.693 -134.304C905.691 -121.369 897.627 -116.594 889.79 -116.594C881.783 -116.594 882.531 -116.25 859.253 -130.643C849.896 -136.428 841.846 -141.162 841.362 -141.162C840.878 -141.162 831.937 -145.352 821.49 -150.471C796.739 -162.604 793.815 -163.311 788.968 -158.335C785.764 -155.047 785.125 -152.065 785.125 -140.393V-126.394L793.952 -118.809C798.807 -114.638 807.298 -107.796 812.824 -103.608C818.349 -99.4206 827.697 -92.3373 833.598 -87.8677C845.157 -79.1139 848.301 -74.9751 846.683 -70.6473C846.118 -69.1335 832.449 -54.971 816.311 -39.1717C800.171 -23.3743 786.966 -9.32119 786.966 -7.94348C786.966 -6.56577 795.261 -0.682639 805.398 5.12869C820.951 14.047 825.274 15.6968 833.081 15.6968C844.7 15.6968 847.213 13.9884 870.451 -9.70865C891.569 -31.2436 899.015 -37.2194 904.726 -37.2194C906.904 -37.2194 914.97 -32.9672 922.65 -27.7701C930.33 -22.573 936.917 -18.3208 937.291 -18.3208C937.665 -18.3208 946.32 -12.7419 956.524 -5.92328C977.992 8.42079 982.776 10.9021 986.294 9.51688C990.44 7.88403 999.768 -32.5439 997.847 -40.5607C996.555 -45.96 984.63 -59.8958 981.297 -59.8996C980.237 -59.9015 972.327 -64.8454 963.719 -70.8892C951.899 -79.1876 947.933 -83.0487 947.513 -86.664C947.06 -90.5741 951.516 -96.3193 971.832 -118.024C1003.49 -151.843 1005.25 -157.214 987.655 -166.142C974.789 -172.668 968.363 -172.679 958.943 -166.195ZM1848.11 -124.522C1806.37 -96.2815 1804.84 -95.4914 1791.95 -95.5557C1781.68 -95.6048 1776.65 -97.4191 1769.28 -103.735C1768.24 -104.625 1763.25 -108.014 1758.19 -111.264C1753.12 -114.515 1742.17 -121.787 1733.83 -127.425C1725.5 -133.062 1717.25 -137.392 1715.49 -137.046C1711.93 -136.341 1710.12 -130.11 1707.65 -109.979C1705.13 -89.5743 1707.16 -82.493 1719.19 -69.5455C1724.84 -63.4658 1730.03 -56.1691 1730.72 -53.3306C1732.2 -47.2754 1731.23 -46.2832 1703.68 -25.644C1684.96 -11.6174 1681.58 -6.85875 1685.3 0.277374C1686.4 2.38457 1687.3 5.73531 1687.3 7.72345C1687.3 9.7097 1688.64 14.0941 1690.28 17.4656C1693.04 23.1428 1693.74 23.5 1699.88 22.317C1703.53 21.6158 1708.61 19.8129 1711.17 18.3086C1724.09 10.7454 1734.41 4.94725 1755.43 -6.54501C1778.25 -19.0276 1778.55 -19.1277 1792.25 -18.8575C1805.04 -18.6024 1807.41 -17.8616 1824.47 -8.7959C1834.6 -3.41168 1846.61 3.16133 1851.17 5.81281C1886.5 26.367 1899.19 30.8478 1904.27 24.5621C1905.37 23.2014 1906.42 17.016 1906.6 10.8172C1906.99 -2.5139 1903.63 -10.4269 1894.92 -16.6559C1891.62 -19.022 1881.25 -26.7761 1871.88 -33.8857C1850.59 -50.0479 1850.17 -52.2306 1865.44 -67.3042C1871.26 -73.0531 1878.71 -81.1814 1881.99 -85.3636C1887.38 -92.239 1887.96 -94.1913 1887.97 -105.651C1887.99 -120.201 1883.06 -138.815 1878.52 -141.309C1876.15 -142.608 1868.99 -138.65 1848.11 -124.522Z"/>
</mask>
<path fill-rule="evenodd" clip-rule="evenodd" d="M1728.35 -460.87C1718.65 -458.791 1686.83 -433.095 1663.76 -408.721C1633.9 -377.164 1616.11 -353.902 1580.99 -300.479C1559.16 -267.265 1527.24 -219.502 1513.86 -200.05C1506.47 -189.302 1496.69 -174.614 1492.14 -167.408C1487.58 -160.202 1474.05 -139.656 1462.07 -121.749C1450.1 -103.843 1430.63 -74.6689 1418.81 -56.9212C1406.99 -39.1716 1393.51 -19.1863 1388.85 -12.5094C1380.24 -0.161059 1367.14 19.4009 1340.19 60.1086C1300.98 119.363 1248.11 197.573 1234.79 216.022C1216.34 241.59 1193.72 268.664 1183.74 277.129C1178.68 281.425 1166.98 292.182 1157.75 301.034C1148.52 309.886 1135.49 321.807 1128.79 327.524C1122.09 333.241 1100.8 351.951 1081.48 369.101C1062.16 386.252 1039.03 406.662 1030.09 414.458C1021.14 422.254 1004.41 436.845 992.911 446.882C981.413 456.919 959.162 476.325 943.466 490.002C927.77 503.68 905.544 523.106 894.071 533.172C843.08 577.916 828.934 586.853 824.022 577.432C821.092 571.814 823.805 567.021 859.034 515.566C874.535 492.925 885.519 476.733 891.085 468.319C894.522 463.122 900.002 455.043 903.263 450.365C909.349 441.631 915.685 432.293 933.392 405.954C962.751 362.285 1018.52 282.648 1029.62 268.551C1033.95 263.048 1043.89 249.685 1051.7 238.856C1059.51 228.027 1068.8 215.38 1072.35 210.753C1075.89 206.127 1081.69 198.316 1085.24 193.399C1091.85 184.22 1112.83 157.164 1140.47 122.172C1149.08 111.275 1158.19 99.5652 1160.73 96.1521C1163.26 92.739 1169.47 84.845 1174.53 78.6103C1179.6 72.3756 1186.34 63.9601 1189.51 59.912C1192.68 55.862 1199.72 46.8927 1205.16 39.9815C1210.59 33.0684 1222.5 17.8493 1231.61 6.15863C1240.72 -5.53207 1251.91 -19.5133 1256.47 -24.9107C1261.02 -30.3082 1270.55 -42.1936 1277.64 -51.3235C1284.73 -60.4534 1295.12 -73.5577 1300.73 -80.4463C1306.34 -87.3348 1317.07 -101.05 1324.57 -110.924C1332.08 -120.799 1341.16 -132.351 1344.75 -136.598C1348.35 -140.844 1355.02 -149.298 1359.57 -155.385C1364.13 -161.472 1373.24 -173.462 1379.83 -182.026C1415.43 -228.355 1418.49 -232.493 1466.43 -298.966C1507.57 -356.009 1515.33 -366.84 1518.06 -371.022C1519.5 -373.235 1525.46 -381.545 1531.3 -389.49C1540.25 -401.644 1541.63 -404.526 1540 -407.657C1538.14 -411.223 1519.37 -426.531 1516.86 -426.531C1516.19 -426.531 1511.81 -429.37 1507.11 -432.84C1480.72 -452.36 1464.88 -456.015 1449.29 -446.188C1445.01 -443.487 1425.86 -424.991 1406.75 -405.083C1365.48 -362.108 1353.37 -347.412 1326.31 -307.47C1320.33 -298.635 1307.57 -279.925 1297.97 -265.893C1288.36 -251.861 1273.47 -229.749 1264.86 -216.756C1241.04 -180.775 1220.24 -149.5 1208.3 -131.713C1202.37 -122.878 1189.73 -103.743 1180.21 -89.1907C1170.69 -74.6387 1158.85 -56.7795 1153.9 -49.5035C1148.94 -42.2276 1132.56 -17.5648 1117.5 5.30252C1064.02 86.4873 1042.07 118.791 1035.31 126.254C1031.55 130.411 1025.05 138.237 1020.86 143.646C1016.68 149.053 1008.95 156.981 1003.68 161.264C998.409 165.544 990.37 172.635 985.814 177.019C981.257 181.404 972.971 188.769 967.402 193.387C961.832 198.004 952.201 206.475 946 212.21C939.797 217.944 924.535 231.566 912.084 242.48C899.634 253.394 883.912 267.427 877.149 273.663C864.957 284.904 846.668 301.083 817.327 326.579C719.012 412.012 617.471 495.212 523.678 585.479C517.095 591.816 508.81 599.226 505.266 601.949C501.722 604.671 496.233 609.309 493.068 612.257C480.876 623.619 473.975 628.013 468.323 628.013C465.682 628.013 459.236 620.784 459.236 617.823C459.236 615.407 487.648 577.561 508.504 552.195C513.304 546.355 521.376 535.878 526.439 528.908C592.518 437.972 663.085 346.984 739.512 264.603C794.267 205.581 829.66 163.089 833.176 152.152C835.713 144.26 834.332 138.536 828.431 132.479C821.731 125.6 789.916 106.248 782.851 104.753C775.102 103.112 764.96 104.698 760.173 108.3C755.559 111.77 720.187 153.504 715.736 160.729C681.5 201.5 387.797 557.203 217.79 702.662C214.144 705.781 197.069 722.152 179.845 739.042C153.361 765.011 147.657 769.752 142.902 769.752C136.259 769.752 133.792 764.686 137.183 758.013C139.847 752.768 158.342 724.292 174.973 699.828C181.686 689.953 199.301 663.75 214.119 641.601C228.934 619.45 251.18 586.282 263.554 567.896C275.927 549.508 287.112 532.66 288.41 530.454C290.697 526.569 311.261 496.006 323.223 478.713C326.458 474.036 335.852 460.004 344.096 447.531C352.341 435.058 363.458 418.474 368.799 410.678C374.141 402.883 391.275 377.369 406.873 353.982C422.474 330.595 440.342 303.806 446.582 294.452C452.82 285.097 465.526 266.387 474.816 252.875C484.105 239.362 496.509 220.652 502.381 211.298C508.25 201.943 515.7 190.887 518.937 186.729C522.172 182.572 529.533 171.478 535.296 162.076C548.97 139.763 550.5 132.5 537.5 121C509.511 98.1633 495.055 84.5238 473.285 67.5773C465.116 61.2186 461.213 58.5 453.5 58.5C443.823 58.5 439.5 62 419.616 81.7607C413.522 87.5229 400.689 99.465 391.1 108.3C381.509 117.135 368.238 129.542 361.606 135.869C354.972 142.197 347.247 148.923 344.433 150.813C339.44 154.173 339.232 154.161 335.469 150.297C331.733 146.462 331.705 146.033 334.559 136.298C336.178 130.774 338.759 122.852 340.293 118.694C341.826 114.537 343.117 108.861 343.161 106.083C343.445 88.344 285.66 47.2861 267.288 56.2344C254.685 62.3727 212.975 98.9169 185.821 127.613C138.654 177.456 100.696 218.861 90.673 231.4C85.387 238.015 77.2913 247.778 72.6829 253.098C68.0744 258.418 62.8141 265.008 60.995 267.744C55.4788 276.039 43.1301 273.174 43.1301 263.602C43.1301 258.643 57.6054 233.67 88.5483 185.244C95.0476 175.071 104.937 159.011 110.523 149.556C116.109 140.099 124.98 125.885 130.236 117.969C143.533 97.9418 143.428 98.5805 134.554 91.4841C111.5 75.5 93.9903 57.525 87.5 59C83.7379 59.855 81.6975 62.9827 79.7823 66.2506C77.4974 70.1494 70.118 81.842 63.3848 92.2363C56.6498 102.631 39.7036 129.845 25.7254 152.712C11.7472 175.579 -1.18896 196.415 -3.02094 199.014C-4.85475 201.612 -10.3414 210.394 -15.2132 218.53C-20.0868 226.664 -28.9686 241.122 -34.9506 250.658C-40.9326 260.192 -54.6899 282.451 -65.5215 300.121C-76.3532 317.792 -90.2835 340.328 -96.4791 350.203C-102.675 360.077 -111.485 374.535 -116.055 382.33C-120.626 390.126 -133.877 411.812 -145.502 430.522C-157.128 449.232 -172.575 474.745 -179.829 487.218C-187.084 499.691 -196.525 515.424 -200.809 522.18C-205.092 528.937 -216.89 548.922 -227.024 566.592C-255.095 615.534 -262.789 628.721 -278.936 655.565C-287.115 669.161 -293.806 681.59 -293.806 683.187C-293.806 687.063 -287.314 695.345 -281.917 698.35C-279.525 699.682 -270.266 705.817 -261.34 711.983C-247.546 721.512 -243.836 723.213 -236.604 723.322C-231.583 723.398 -226.726 722.288 -224.756 720.616C-220.133 716.693 -196.573 689.148 -177.811 665.732C-169.204 654.99 -157.17 640.62 -151.068 633.799C-144.967 626.979 -137.983 618.422 -135.551 614.784C-133.119 611.146 -127.339 603.804 -122.709 598.47C-118.08 593.135 -107.248 579.986 -98.6407 569.249C-90.0332 558.513 -78.4337 544.505 -72.8642 538.121C-63.1538 526.99 -50.1735 510.796 -39.1375 496.043C-36.2836 492.228 -29.0975 483.58 -23.1689 476.824C-17.2404 470.067 -10.5145 461.988 -8.22406 458.87C32.2201 403.852 80.5294 353.771 122.737 299.904C150.625 264.314 170.171 250.159 170.171 265.55C170.171 268.912 149.442 305.095 138.997 319.965C137.17 322.563 125.075 341.273 112.119 361.542C71.8646 424.515 35.2781 491.845 -9.20728 551.908C-11.1571 554.54 -19.2104 567 -27.1017 579.596C-34.9948 592.194 -43.8969 605.901 -46.887 610.059C-58.3557 626.009 -93.1171 683.605 -93.1171 686.657C-93.1171 690.824 -85.5886 698.484 -72.5181 707.614C-66.7588 711.637 -61.5096 715.818 -60.856 716.904C-58.8344 720.263 -45.5098 728.175 -41.8772 728.175C-35.8988 728.175 -24.3012 717.915 -4.54907 695.154C68.9121 610.499 134.556 520.039 205.677 433.625C211.972 425.977 218.94 417.138 221.165 413.982C223.389 410.828 229.395 403.478 234.509 397.651C239.626 391.823 251.531 377.184 260.965 365.119C270.401 353.056 280.771 340.3 284.01 336.771C287.248 333.245 292.995 326.379 296.778 321.516C300.562 316.654 305.61 311.57 307.996 310.223C311.85 308.045 312.717 308.25 315.706 312.039C320.469 318.075 318.476 322.575 294.62 359.652C283.586 376.802 268.338 400.615 260.733 412.568C253.131 424.522 240.121 444.932 231.827 457.925C182.805 534.703 133.281 611.211 85.4772 688.758C50.5439 745.437 -24.9935 830.174 -24.9935 894.971C-24.9935 900.202 -19.7241 905.501 -1.97882 918.113C5.10972 923.149 13.9658 930.049 17.6997 933.445C21.4336 936.841 27.898 940.666 32.0646 941.947C41.3349 944.799 45.6819 942.9 75.4703 922.996C94.8046 910.075 108.601 898.42 148.365 861.411C197.13 816.023 247.401 772.978 295.348 726.441C305.818 716.273 310.397 713.057 314.396 713.057C319.474 713.057 333.743 721.899 360.733 741.775C373.94 751.5 384.035 756.523 390.369 756.523C398.829 756.523 443.202 732.269 466.185 715.081C563.684 642.164 655.978 561.282 750.15 484.13C759.774 476.245 772.152 465.849 777.657 461.026C789.015 451.074 795.178 449.838 798.306 456.884C800.589 462.028 798.849 465.394 776.763 498.557C770.532 507.912 751.967 536.402 735.507 561.867C719.049 587.333 704.073 610.384 702.228 613.092C684.934 638.481 653.877 690.34 653.127 695.084C650.656 710.722 695.07 735.427 707.958 739.566C717.371 742.593 718.432 742.586 727.354 739.435C732.546 737.6 740.005 734.034 743.929 731.509C747.852 728.984 756.449 723.663 763.031 719.686C780.795 708.95 805.516 692.329 811.992 686.765C815.123 684.075 822.459 678.472 828.293 674.314C837.906 667.464 852.44 655.803 872.581 638.777C876.632 635.353 882.846 630.492 886.39 627.975C889.934 625.459 900.197 616.997 909.195 609.171C928.722 592.187 947.079 576.939 964.673 563.09C971.778 557.496 978.642 551.622 979.924 550.037C981.205 548.451 984.83 546.059 987.981 544.721C993.234 542.487 993.998 542.649 997.168 546.669C999.411 549.511 1000.2 552.46 999.414 555.043C998.068 559.467 981.851 583.552 946.055 634.291C921.33 669.34 906.136 692.164 893.626 713.057C865.231 760.475 860.899 768.583 858.772 778.259C856.789 787.285 859.396 790.237 885.451 808.47L907.02 823.564H921.194C934.677 823.564 935.973 823.173 947.808 815.557C954.652 811.154 960.746 807.55 961.35 807.55C961.956 807.55 965.016 805.55 968.149 803.105C971.283 800.661 976.746 797.137 980.29 795.273C998.913 785.482 1036.39 757.695 1075.72 724.511C1080.11 720.809 1089.81 712.679 1097.28 706.442C1104.76 700.205 1118.95 688.299 1128.82 679.984C1138.69 671.668 1148.56 663.589 1150.74 662.03C1152.93 660.471 1159.67 654.745 1165.72 649.306C1171.77 643.867 1179.13 637.521 1182.07 635.204C1185.01 632.889 1193.35 625.856 1200.59 619.58C1207.83 613.304 1218.87 603.917 1225.11 598.72C1231.36 593.523 1242.95 583.743 1250.87 576.986C1258.8 570.23 1270.55 560.267 1276.98 554.847C1283.42 549.426 1297.8 537.203 1308.94 527.685C1339.28 501.764 1359.72 486.273 1363.59 486.273C1372.05 486.273 1368.44 498.614 1354.05 518.865C1350.5 523.853 1344.29 533.448 1340.24 540.187C1336.19 546.924 1328.96 558.175 1324.17 565.184C1309.35 586.902 1308.13 588.749 1295.82 608.169C1263.89 658.545 1239.9 702.454 1239.9 710.501C1239.9 716.997 1254.84 731.608 1274.78 744.619C1287.93 753.194 1289.36 753.683 1301.06 753.583C1312.01 753.49 1315.29 752.496 1329.6 744.95C1345.7 736.459 1364.57 724.144 1379.27 712.541C1415.69 683.783 1439.97 664.321 1451.63 654.527C1459.23 648.147 1473.31 636.867 1482.93 629.457C1492.55 622.046 1503.3 613.162 1506.81 609.715C1510.33 606.266 1513.82 603.444 1514.58 603.444C1515.33 603.444 1520.06 599.831 1525.09 595.412C1530.11 590.994 1537.81 584.614 1542.18 581.233C1546.56 577.852 1553.97 571.899 1558.65 568.004C1563.33 564.109 1569.51 559.222 1572.39 557.143C1583.18 549.355 1605.04 530.566 1606.97 527.43C1611.28 520.408 1606.5 519.512 1564.39 519.459C1524.39 519.41 1524.35 519.415 1513.96 524.62C1504.44 529.392 1484.84 544.551 1449.91 574.151C1409 608.83 1393.27 620.661 1387.56 621.056C1378.4 621.687 1380.47 615.046 1397.49 589.097C1406.29 575.68 1414.94 563.001 1416.69 560.922C1418.45 558.844 1426.37 547.363 1434.28 535.409C1442.2 523.456 1452.48 508.573 1457.13 502.337C1461.78 496.1 1467.88 487.596 1470.69 483.438C1477.55 473.295 1489.4 456.969 1499.5 443.74C1504.06 437.771 1511.1 428.435 1515.15 422.993C1525.68 408.843 1542.91 387.157 1548.53 380.989C1551.17 378.089 1556.31 371.889 1559.95 367.211C1563.59 362.534 1575.74 348.927 1586.95 336.974C1598.17 325.02 1613.23 308.011 1620.42 299.176C1627.61 290.341 1636.58 280.136 1640.35 276.498C1644.12 272.86 1651.58 264.356 1656.92 257.599C1662.26 250.843 1670.3 241.413 1674.81 236.643C1679.31 231.873 1687.71 222.093 1693.49 214.909C1699.26 207.726 1713.45 190.793 1725.04 177.28C1753.3 144.306 1753.3 144.364 1726.51 125.04C1719.63 120.076 1708.41 113.081 1701.58 109.5C1691.27 104.097 1687.82 103.167 1681.32 104.037C1671.55 105.346 1670.17 106.448 1637.59 139.177C1622.91 153.925 1607.17 168.957 1602.61 172.582C1598.05 176.205 1589.35 183.891 1583.28 189.661C1577.2 195.43 1567.67 203.895 1562.1 208.471C1556.53 213.046 1547.79 220.656 1542.68 225.383C1537.57 230.109 1526.04 240.354 1517.05 248.15C1508.06 255.946 1494.18 268.277 1486.2 275.553C1478.23 282.829 1469.05 290.744 1465.81 293.14C1462.57 295.537 1453.7 303.304 1446.11 310.402C1438.51 317.499 1428.4 326.594 1423.64 330.612C1418.88 334.63 1400.11 351.1 1381.93 367.211C1363.76 383.323 1342.4 402.032 1334.48 408.788C1326.55 415.545 1313.26 427.451 1304.94 435.247C1288.76 450.399 1271.7 465.384 1250.45 483.085C1243.2 489.128 1233.47 497.633 1228.83 501.983C1219.19 511.036 1217.34 512.667 1187.74 538.291C1157.17 564.763 1135.52 583.737 1105.1 610.698C1090.63 623.52 1072.27 639.679 1064.29 646.605C1056.31 653.53 1042.79 665.362 1034.25 672.897C1018.78 686.538 1014.32 688.647 1010.12 684.331C1005.13 679.209 1006.91 675.913 1043.29 622.982C1061.32 596.749 1066.65 588.927 1098.87 541.4C1109.92 525.113 1126.57 500.73 1135.87 487.218C1160.86 450.917 1177.47 426.648 1184.14 416.686C1193.94 402.064 1209.99 378.97 1236.21 341.746C1249.88 322.34 1266.87 298.148 1273.96 287.986C1286.42 270.12 1303.87 245.81 1315.44 230.196C1318.52 226.039 1326.97 214.558 1334.22 204.683C1355.07 176.284 1358.43 171.845 1373.7 152.561C1381.63 142.558 1389.74 132.12 1391.74 129.368C1393.73 126.617 1400.22 118.411 1406.16 111.135C1412.09 103.859 1422.06 91.6448 1428.31 83.9908C1434.55 76.3388 1445.46 63.0946 1452.55 54.5618C1459.64 46.0291 1470.41 32.8568 1476.49 25.2917C1482.56 17.7265 1492.51 5.56522 1498.58 -1.73532C1504.66 -9.03586 1511.86 -17.9693 1514.59 -21.5883C1517.32 -25.2055 1525.19 -34.5585 1532.08 -42.3712C1538.97 -50.182 1545.44 -58.0703 1546.45 -59.8978C1547.47 -61.7253 1551.02 -66.5124 1554.35 -70.5359C1564.09 -82.3079 1578.2 -100.32 1601.13 -130.291C1611.1 -143.316 1671.97 -225.89 1683.62 -242.192C1687.16 -247.151 1693.79 -256.491 1698.35 -262.949C1702.91 -269.406 1715.81 -287.379 1727.02 -302.891C1738.23 -318.403 1751.07 -336.294 1755.56 -342.652C1760.04 -349.009 1769.1 -361.666 1775.68 -370.779C1782.26 -379.893 1790.75 -391.677 1794.55 -396.968C1801.81 -407.087 1803.89 -418.66 1799.15 -422.653C1797.89 -423.721 1789.4 -430.226 1780.28 -437.107C1771.17 -443.988 1761.07 -452.198 1757.83 -455.35C1751.56 -461.469 1740.66 -463.508 1728.35 -460.87ZM958.943 -166.195C949.261 -159.529 930.499 -144.284 919.693 -134.304C905.691 -121.369 897.627 -116.594 889.79 -116.594C881.783 -116.594 882.531 -116.25 859.253 -130.643C849.896 -136.428 841.846 -141.162 841.362 -141.162C840.878 -141.162 831.937 -145.352 821.49 -150.471C796.739 -162.604 793.815 -163.311 788.968 -158.335C785.764 -155.047 785.125 -152.065 785.125 -140.393V-126.394L793.952 -118.809C798.807 -114.638 807.298 -107.796 812.824 -103.608C818.349 -99.4206 827.697 -92.3373 833.598 -87.8677C845.157 -79.1139 848.301 -74.9751 846.683 -70.6473C846.118 -69.1335 832.449 -54.971 816.311 -39.1717C800.171 -23.3743 786.966 -9.32119 786.966 -7.94348C786.966 -6.56577 795.261 -0.682639 805.398 5.12869C820.951 14.047 825.274 15.6968 833.081 15.6968C844.7 15.6968 847.213 13.9884 870.451 -9.70865C891.569 -31.2436 899.015 -37.2194 904.726 -37.2194C906.904 -37.2194 914.97 -32.9672 922.65 -27.7701C930.33 -22.573 936.917 -18.3208 937.291 -18.3208C937.665 -18.3208 946.32 -12.7419 956.524 -5.92328C977.992 8.42079 982.776 10.9021 986.294 9.51688C990.44 7.88403 999.768 -32.5439 997.847 -40.5607C996.555 -45.96 984.63 -59.8958 981.297 -59.8996C980.237 -59.9015 972.327 -64.8454 963.719 -70.8892C951.899 -79.1876 947.933 -83.0487 947.513 -86.664C947.06 -90.5741 951.516 -96.3193 971.832 -118.024C1003.49 -151.843 1005.25 -157.214 987.655 -166.142C974.789 -172.668 968.363 -172.679 958.943 -166.195ZM1848.11 -124.522C1806.37 -96.2815 1804.84 -95.4914 1791.95 -95.5557C1781.68 -95.6048 1776.65 -97.4191 1769.28 -103.735C1768.24 -104.625 1763.25 -108.014 1758.19 -111.264C1753.12 -114.515 1742.17 -121.787 1733.83 -127.425C1725.5 -133.062 1717.25 -137.392 1715.49 -137.046C1711.93 -136.341 1710.12 -130.11 1707.65 -109.979C1705.13 -89.5743 1707.16 -82.493 1719.19 -69.5455C1724.84 -63.4658 1730.03 -56.1691 1730.72 -53.3306C1732.2 -47.2754 1731.23 -46.2832 1703.68 -25.644C1684.96 -11.6174 1681.58 -6.85875 1685.3 0.277374C1686.4 2.38457 1687.3 5.73531 1687.3 7.72345C1687.3 9.7097 1688.64 14.0941 1690.28 17.4656C1693.04 23.1428 1693.74 23.5 1699.88 22.317C1703.53 21.6158 1708.61 19.8129 1711.17 18.3086C1724.09 10.7454 1734.41 4.94725 1755.43 -6.54501C1778.25 -19.0276 1778.55 -19.1277 1792.25 -18.8575C1805.04 -18.6024 1807.41 -17.8616 1824.47 -8.7959C1834.6 -3.41168 1846.61 3.16133 1851.17 5.81281C1886.5 26.367 1899.19 30.8478 1904.27 24.5621C1905.37 23.2014 1906.42 17.016 1906.6 10.8172C1906.99 -2.5139 1903.63 -10.4269 1894.92 -16.6559C1891.62 -19.022 1881.25 -26.7761 1871.88 -33.8857C1850.59 -50.0479 1850.17 -52.2306 1865.44 -67.3042C1871.26 -73.0531 1878.71 -81.1814 1881.99 -85.3636C1887.38 -92.239 1887.96 -94.1913 1887.97 -105.651C1887.99 -120.201 1883.06 -138.815 1878.52 -141.309C1876.15 -142.608 1868.99 -138.65 1848.11 -124.522Z" stroke="#3973A6" mask="url(#path-2-inside-1)"/>
</g>
</svg>
